
nColumns=19
nRows=24
DataType=double
version=3
OpenSimVersion=4.4-2022-10-11-798caa840
endheader
time	ground_force_calcn_r_vx	ground_force_calcn_r_vy	ground_force_calcn_r_vz	ground_force_calcn_r_px	ground_force_calcn_r_py	ground_force_calcn_r_pz	ground_force_calcn_r_mx	ground_force_calcn_r_my	ground_force_calcn_r_mz	ground_force_calcn_l_vx	ground_force_calcn_l_vy	ground_force_calcn_l_vz	ground_force_calcn_l_px	ground_force_calcn_l_py	ground_force_calcn_l_pz	ground_force_calcn_l_mx	ground_force_calcn_l_my	ground_force_calcn_l_mz
1.47	-67.4619	32.7359	-12.0578	0.113923	0	-0.313377	0.152481	-0.0739916	0.0272538	-149.726	157.517	18.902	-0.0704304	0	-0.781433	0.278625	-0.293123	-0.0351746
1.48	-307.326	466.805	-95.56140000000001	-0.144073	0	-0.365242	-0.61217	0.92984	-0.190351	-491.985	656.116	59.9833	-0.09162530000000001	0	-0.790723	-0.449024	0.598823	0.0547455
1.49	-250.463	1351.36	-180.247	-0.219558	0	-0.383223	-0.06828629999999999	0.368435	-0.0491426	-294.345	825.47	120.257	-0.13042	0	-0.792762	0.676252	-1.8965	-0.276286
1.5	-24.6291	1941.83	-141.484	-0.242877	0	-0.391919	0.0522912	-4.1228	0.300393	-47.9346	1252.91	189.564	-0.195197	0	-0.787934	0.0537928	-1.40603	-0.212731
1.51	-112.038	1151.56	-81.18819999999999	-0.231167	0	-0.391805	0.395239	-4.06241	0.28641	20.1618	1359.67	151.028	-0.213786	0	-0.782815	0.0137946	0.930279	0.103332
1.52	-272.577	594.8200000000001	-75.5538	-0.189015	0	-0.385099	1.06144	-2.3163	0.294215	-171.308	857.336	111.758	-0.187393	0	-0.782686	-0.350478	1.75402	0.228646
1.53	-325.555	453.312	-74.07940000000001	-0.155042	0	-0.380475	1.25304	-1.74477	0.285126	-319.899	587.83	90.4144	-0.141993	0	-0.784686	-0.601741	1.10573	0.170072
1.54	-291.795	520.176	-70.88800000000001	-0.165345	0	-0.384428	1.09553	-1.95297	0.266144	-286.844	497.975	60.1976	-0.125284	0	-0.783281	-1.11513	1.93592	0.234023
1.55	-201.888	666.066	-77.38460000000001	-0.188348	0	-0.389115	0.636227	-2.09903	0.243869	-212.725	517.831	60.8003	-0.132735	0	-0.781744	-0.92005	2.23966	0.262966
1.56	-125.12	773.3819999999999	-90.1532	-0.200718	0	-0.391053	0.265037	-1.63823	0.190969	-183.829	623.891	98.76300000000001	-0.14601	0	-0.781927	-0.297836	1.01081	0.160013
1.57	-87.05	835.699	-97.6161	-0.206435	0	-0.392319	0.145974	-1.40139	0.163693	-161.423	753.832	123.188	-0.158965	0	-0.781023	-0.130905	0.611314	0.0998984
1.58	-74.9144	836.38	-94.5243	-0.208301	0	-0.393519	0.175734	-1.96198	0.221735	-114.132	844.509	124.32	-0.169617	0	-0.779227	-0.201574	1.49153	0.219568
1.59	-80.8837	776.872	-83.51479999999999	-0.206424	0	-0.394425	0.300804	-2.88916	0.310589	-72.9074	893.246	115.644	-0.176195	0	-0.7774990000000001	-0.196084	2.40239	0.311025
1.6	-93.2773	711.199	-77.06100000000001	-0.202869	0	-0.394692	0.465311	-3.54779	0.384416	-68.5634	872.128	114.742	-0.175138	0	-0.777177	-0.154756	1.96849	0.258986
1.61	-98.2976	668.961	-77.5288	-0.200257	0	-0.394866	0.552527	-3.76021	0.435787	-79.0301	805.787	121.563	-0.169125	0	-0.777965	-0.0658796	0.671705	0.101335
1.62	-89.917	664.798	-78.209	-0.201118	0	-0.396199	0.54915	-4.06012	0.477646	-82.73990000000001	756.39	124.86	-0.163969	0	-0.77843	0.0384861	-0.351832	-0.058078
1.63	-70.4693	683.9059999999999	-74.1044	-0.204767	0	-0.398494	0.478965	-4.64836	0.503672	-78.8396	730.556	122.829	-0.161599	0	-0.778093	0.0931467	-0.863131	-0.145119
1.64	-53.1705	695.175	-69.785	-0.208042	0	-0.400514	0.389854	-5.09712	0.511674	-72.05410000000001	713.405	118.553	-0.16089	0	-0.777407	0.0991044	-0.981228	-0.163059
1.65	-42.4457	696.626	-69.3618	-0.210178	0	-0.401826	0.321598	-5.27811	0.525533	-62.6391	705.6660000000001	114.092	-0.161949	0	-0.776573	0.0690466	-0.77785	-0.125762
1.66	-33.3666	693.837	-69.7298	-0.211854	0	-0.402865	0.260469	-5.41627	0.544329	-47.8263	704.982	111.293	-0.164891	0	-0.775548	0.0231635	-0.34144	-0.0539019
1.67	-28.0808	684.03	-67.8884	-0.212907	0	-0.403697	0.234677	-5.71658	0.567357	-32.036	705.912	109.841	-0.168532	0	-0.774533	-0.0127394	0.280712	0.0436793
1.68	-30.4854	669.225	-67.3796	-0.212968	0	-0.40404	0.273195	-5.99727	0.603823	-22.8495	700.471	108.619	-0.170906	0	-0.773922	-0.0279597	0.8571299999999999	0.132912
1.69	-35.8741	655.3049999999999	-69.658	-0.212673	0	-0.403975	0.335197	-6.12298	0.650864	-24.2496	683.337	107.892	-0.171068	0	-0.773778	-0.0419753	1.18284	0.186758
1.7	-37.4537	645.836	-72.41930000000001	-0.212925	0	-0.403939	0.359232	-6.19444	0.6946	-30.2901	660.188	106.799	-0.169915	0	-0.77386	-0.0623247	1.3584	0.219748
